<?xml version="1.0" encoding="UTF-8" standalone="no"?>
<svg width="980px" height="400px" viewBox="0 0 980 400" version="1.1" xmlns="http://www.w3.org/2000/svg" xmlns:xlink="http://www.w3.org/1999/xlink">
    <!-- Generator: Sketch 42 (36781) - http://www.bohemiancoding.com/sketch -->
    <title>Slice 1</title>
    <desc>Created with Sketch.</desc>
    <defs></defs>
    <g id="Page-1" stroke="none" stroke-width="1" fill="none" fill-rule="evenodd" fill-opacity="0.2">
        <g id="github-banner" transform="translate(-16.000000, -21.000000)">
            <rect id="Rectangle" fill="#FF0000" x="478" y="187" width="50" height="50"></rect>
            <rect id="Rectangle-Copy-6" fill="#FF0000" x="478" y="271" width="50" height="50"></rect>
            <rect id="Rectangle-Copy-8" fill="#FF0000" x="562" y="271" width="50" height="50"></rect>
            <rect id="Rectangle-Copy-7" fill="#FF0000" x="394" y="271" width="50" height="50"></rect>
            <rect id="Rectangle-Copy-4" fill="#FF0000" x="394" y="187" width="50" height="50"></rect>
            <rect id="Rectangle-Copy-5" fill="#FF0000" x="394" y="103" width="50" height="50"></rect>
            <rect id="Rectangle-Copy" fill="#FF0000" x="478" y="103" width="50" height="50"></rect>
            <rect id="Rectangle-Copy-2" fill="#FF0000" x="562" y="103" width="50" height="50"></rect>
            <rect id="Rectangle-Copy-3" fill="#FF0000" x="562" y="187" width="50" height="50"></rect>
            <g id="Group-2-Copy-3" transform="translate(461.000000, 254.000000) rotate(-90.000000) translate(-461.000000, -254.000000) translate(457.000000, 187.000000)" fill="#0000FF">
                <rect id="Rectangle-2-Copy" x="0" y="0" width="8" height="18"></rect>
                <rect id="Rectangle-2-Copy-2" x="0" y="29" width="8" height="18"></rect>
                <rect id="Rectangle-2-Copy-5" x="0" y="58" width="8" height="18"></rect>
                <rect id="Rectangle-2-Copy-4" x="6.82121026e-13" y="87" width="8" height="18"></rect>
                <rect id="Rectangle-2-Copy-3" x="6.82121026e-13" y="116" width="8" height="18"></rect>
            </g>
            <g id="Group-2-Copy-4" transform="translate(545.000000, 254.000000) rotate(-180.000000) translate(-545.000000, -254.000000) translate(541.000000, 187.000000)" fill="#0000FF">
                <rect id="Rectangle-2-Copy" x="0" y="0" width="8" height="18"></rect>
                <rect id="Rectangle-2-Copy-2" x="0" y="29" width="8" height="18"></rect>
                <rect id="Rectangle-2-Copy-5" x="0" y="58" width="8" height="18"></rect>
                <rect id="Rectangle-2-Copy-4" x="6.82121026e-13" y="87" width="8" height="18"></rect>
                <rect id="Rectangle-2-Copy-3" x="6.82121026e-13" y="116" width="8" height="18"></rect>
            </g>
            <g id="Group-2-Copy-6" transform="translate(461.000000, 170.000000) rotate(-180.000000) translate(-461.000000, -170.000000) translate(457.000000, 103.000000)" fill="#0000FF">
                <rect id="Rectangle-2-Copy" x="0" y="0" width="8" height="18"></rect>
                <rect id="Rectangle-2-Copy-2" x="0" y="29" width="8" height="18"></rect>
                <rect id="Rectangle-2-Copy-5" x="0" y="58" width="8" height="18"></rect>
                <rect id="Rectangle-2-Copy-4" x="6.82121026e-13" y="87" width="8" height="18"></rect>
                <rect id="Rectangle-2-Copy-3" x="6.82121026e-13" y="116" width="8" height="18"></rect>
            </g>
            <g id="Group-2-Copy-5" transform="translate(545.000000, 170.000000) rotate(-270.000000) translate(-545.000000, -170.000000) translate(541.000000, 103.000000)" fill="#0000FF">
                <rect id="Rectangle-2-Copy" x="0" y="0" width="8" height="18"></rect>
                <rect id="Rectangle-2-Copy-2" x="0" y="29" width="8" height="18"></rect>
                <rect id="Rectangle-2-Copy-5" x="0" y="58" width="8" height="18"></rect>
                <rect id="Rectangle-2-Copy-4" x="6.82121026e-13" y="87" width="8" height="18"></rect>
                <rect id="Rectangle-2-Copy-3" x="6.82121026e-13" y="116" width="8" height="18"></rect>
            </g>
        </g>
    </g>
</svg>