<?xml version="1.0" encoding="UTF-8"?>
<svg width="980px" height="605px" viewBox="0 0 980 605" version="1.1" xmlns="http://www.w3.org/2000/svg" xmlns:xlink="http://www.w3.org/1999/xlink">
    <!-- Generator: Sketch 49.2 (51160) - http://www.bohemiancoding.com/sketch -->
    <title>Slice 1</title>
    <desc>Created with Sketch.</desc>
    <defs></defs>
    <g id="Page-1" stroke="none" stroke-width="1" fill="none" fill-rule="evenodd">
        <g id="github-banner" transform="translate(-16.000000, -21.000000)">
            <g id="Group" transform="translate(397.000000, 215.000000)">
                <rect id="Rectangle" fill="#F3F3F3" x="84" y="84" width="50" height="50"></rect>
                <rect id="Rectangle-Copy-6" fill="#F3F3F3" x="84" y="168" width="50" height="50"></rect>
                <rect id="Rectangle-Copy-8" fill="#F3F3F3" x="168" y="168" width="50" height="50"></rect>
                <rect id="Rectangle-Copy-7" fill="#F3F3F3" x="0" y="168" width="50" height="50"></rect>
                <rect id="Rectangle-Copy-4" fill="#F3F3F3" x="0" y="84" width="50" height="50"></rect>
                <rect id="Rectangle-Copy-5" fill="#F3F3F3" x="0" y="0" width="50" height="50"></rect>
                <rect id="Rectangle-Copy" fill="#F3F3F3" x="84" y="0" width="50" height="50"></rect>
                <rect id="Rectangle-Copy-2" fill="#F3F3F3" x="168" y="0" width="50" height="50"></rect>
                <rect id="Rectangle-Copy-3" fill="#F3F3F3" x="168" y="84" width="50" height="50"></rect>
                <g id="Group-2-Copy-3" transform="translate(67.000000, 151.000000) rotate(-90.000000) translate(-67.000000, -151.000000) translate(63.000000, 84.000000)" fill="#343334">
                    <rect id="Rectangle-2-Copy" x="0" y="0" width="8" height="18"></rect>
                    <rect id="Rectangle-2-Copy-2" x="0" y="29" width="8" height="18"></rect>
                    <rect id="Rectangle-2-Copy-5" x="0" y="58" width="8" height="18"></rect>
                    <rect id="Rectangle-2-Copy-4" x="6.82121026e-13" y="87" width="8" height="18"></rect>
                    <rect id="Rectangle-2-Copy-3" x="6.82121026e-13" y="116" width="8" height="18"></rect>
                </g>
                <g id="Group-2-Copy-4" transform="translate(151.000000, 151.000000) rotate(-180.000000) translate(-151.000000, -151.000000) translate(147.000000, 84.000000)" fill="#343334">
                    <rect id="Rectangle-2-Copy" x="0" y="0" width="8" height="18"></rect>
                    <rect id="Rectangle-2-Copy-2" x="0" y="29" width="8" height="18"></rect>
                    <rect id="Rectangle-2-Copy-5" x="0" y="58" width="8" height="18"></rect>
                    <rect id="Rectangle-2-Copy-4" x="6.82121026e-13" y="87" width="8" height="18"></rect>
                    <rect id="Rectangle-2-Copy-3" x="6.82121026e-13" y="116" width="8" height="18"></rect>
                </g>
                <g id="Group-2-Copy-6" transform="translate(67.000000, 67.000000) rotate(-180.000000) translate(-67.000000, -67.000000) translate(63.000000, 0.000000)" fill="#343334">
                    <rect id="Rectangle-2-Copy" x="0" y="0" width="8" height="18"></rect>
                    <rect id="Rectangle-2-Copy-2" x="0" y="29" width="8" height="18"></rect>
                    <rect id="Rectangle-2-Copy-5" x="0" y="58" width="8" height="18"></rect>
                    <rect id="Rectangle-2-Copy-4" x="6.82121026e-13" y="87" width="8" height="18"></rect>
                    <rect id="Rectangle-2-Copy-3" x="6.82121026e-13" y="116" width="8" height="18"></rect>
                </g>
                <g id="Group-2-Copy-5" transform="translate(151.000000, 67.000000) rotate(-270.000000) translate(-151.000000, -67.000000) translate(147.000000, 0.000000)" fill="#343334">
                    <rect id="Rectangle-2-Copy" x="0" y="0" width="8" height="18"></rect>
                    <rect id="Rectangle-2-Copy-2" x="0" y="29" width="8" height="18"></rect>
                    <rect id="Rectangle-2-Copy-5" x="0" y="58" width="8" height="18"></rect>
                    <rect id="Rectangle-2-Copy-4" x="6.82121026e-13" y="87" width="8" height="18"></rect>
                    <rect id="Rectangle-2-Copy-3" x="6.82121026e-13" y="116" width="8" height="18"></rect>
                </g>
            </g>
        </g>
    </g>
</svg>